<svg height="48pt" viewBox="0 0 48 48" width="48pt" xmlns="http://www.w3.org/2000/svg" xmlns:xlink="http://www.w3.org/1999/xlink"><linearGradient id="a" gradientUnits="userSpaceOnUse" x1="2.625011" x2="64.980569" y1="46.249988" y2="-9.461133"><stop offset="0" stop-color="#43e97b"/><stop offset=".97826086957" stop-color="#38f9d7"/></linearGradient><path d="m21.49 44.5c.828 0 1.5.672 1.5 1.5 0 .828-.672 1.5-1.5 1.5h-18.99c-1.104 0-2-.896-2-2v-26.79c0-1.104.67-2.595 1.495-3.329l15.105-13.431c.618-.546 1.568-.488 2.12.13.552.618.494 1.564-.13 2.11l-15.59 13.87v26.44zm6.02-41c-.828 0-1.5-.672-1.5-1.5 0-.828.672-1.5 1.5-1.5h18.99c.552 0 1 .448 1 1v28.79c0 .552-.335 1.298-.747 1.664l-15.853 14.096c-.618.546-1.568.488-2.12-.13-.552-.618-.494-1.564.13-2.11l15.59-13.87v-26.44zm-5.019 22.525v7.651h-4.037v-19.352h11.092v3.362h-7.055v4.99h6.565v3.349z" fill="url(#a)" fill-rule="evenodd"/></svg>